<svg xmlns="http://www.w3.org/2000/svg" width="24" height="24" viewBox="0 0 24 24"><path fill="currentColor" d="M18.2495,5.5 C19.7665,5.5 20.9995,6.733 20.9995,8.25 L20.9995,15.75 C20.9995,17.267 19.7665,18.5 18.2495,18.5 L5.7495,18.5 C4.2335,18.5 2.9995,17.267 2.9995,15.75 L2.9995,8.25 C2.9995,6.733 4.2335,5.5 5.7495,5.5 L18.2495,5.5 Z M18.2495,7 L5.7495,7 C5.0605,7 4.4995,7.56 4.4995,8.25 L4.4995,15.75 C4.4995,16.439 5.0605,17 5.7495,17 L18.2495,17 C18.9385,17 19.4995,16.439 19.4995,15.75 L19.4995,8.25 C19.4995,7.56 18.9385,7 18.2495,7 Z M6.2832,14.0928 C6.6972,14.0928 7.0332,14.4288 7.0332,14.8428 C7.0332,15.2568 6.6972,15.5928 6.2832,15.5928 L6.0572,15.5928 C5.6432,15.5928 5.3072,15.2568 5.3072,14.8428 C5.3072,14.4288 5.6432,14.0928 6.0572,14.0928 L6.2832,14.0928 Z M10.6646,14.0928 C11.0786,14.0928 11.4146,14.4288 11.4146,14.8428 C11.4146,15.2568 11.0786,15.5928 10.6646,15.5928 L10.4386,15.5928 C10.0246,15.5928 9.6886,15.2568 9.6886,14.8428 C9.6886,14.4288 10.0246,14.0928 10.4386,14.0928 Z M13.063,14.0928 C13.477,14.0928 13.813,14.4288 13.813,14.8428 C13.813,15.2568 13.477,15.5928 13.063,15.5928 L12.837,15.5928 C12.423,15.5928 12.087,15.2568 12.087,14.8428 C12.087,14.4288 12.423,14.0928 12.837,14.0928 Z M15.4683,14.0928 C15.8823,14.0928 16.2183,14.4288 16.2183,14.8428 C16.2183,15.2568 15.8823,15.5928 15.4683,15.5928 L15.2423,15.5928 C14.8283,15.5928 14.4923,15.2568 14.4923,14.8428 C14.4923,14.4288 14.8283,14.0928 15.2423,14.0928 Z M17.8628,14.0928 C18.2768,14.0928 18.6128,14.4288 18.6128,14.8428 C18.6128,15.2568 18.2768,15.5928 17.8628,15.5928 L17.6368,15.5928 C17.2228,15.5928 16.8868,15.2568 16.8868,14.8428 C16.8868,14.4288 17.2228,14.0928 17.6368,14.0928 Z M12.5959,11.0493 C13.0099,11.0493 13.3459,11.3853 13.3459,11.7993 C13.3459,12.2133 13.0099,12.5493 12.5959,12.5493 L6.1699,12.5493 C5.7559,12.5493 5.4199,12.2133 5.4199,11.7993 C5.4199,11.3853 5.7559,11.0493 6.1699,11.0493 Z M17.8628,11.0493 C18.2768,11.0493 18.6128,11.3853 18.6128,11.7993 C18.6128,12.2133 18.2768,12.5493 17.8628,12.5493 L15.4678,12.5493 C15.0538,12.5493 14.7178,12.2133 14.7178,11.7993 C14.7178,11.3853 15.0538,11.0493 15.4678,11.0493 Z M12.5959,8.709 C13.0099,8.709 13.3459,9.045 13.3459,9.459 C13.3459,9.873 13.0099,10.209 12.5959,10.209 L6.1699,10.209 C5.7559,10.209 5.4199,9.873 5.4199,9.459 C5.4199,9.045 5.7559,8.709 6.1699,8.709 Z M17.8628,8.709 C18.2768,8.709 18.6128,9.045 18.6128,9.459 C18.6128,9.873 18.2768,10.209 17.8628,10.209 L15.4678,10.209 C15.0538,10.209 14.7178,9.873 14.7178,9.459 C14.7178,9.045 15.0538,8.709 15.4678,8.709 Z"/></svg>