<svg xmlns="http://www.w3.org/2000/svg" width="24" height="24" viewBox="0 0 24 24"><path fill="currentColor" d="M11.9995,17.1937 C12.2555,17.1937 12.5115,17.2577 12.7445,17.3867 L16.5735,19.4927 C16.6385,19.4747 16.6715,19.4397 16.6595,19.3687 L15.9285,14.9057 C15.8435,14.3947 16.0085,13.8697 16.3685,13.5017 L19.4675,10.3417 C19.5125,10.2957 19.5025,10.2387 19.4915,10.2087 L15.1535,9.4967 C14.6395,9.4187 14.1965,9.0857 13.9715,8.6067 L12.0565,4.5477 C12.0355,4.5057 12.0175,4.4997 12.0005,4.4997 L10.0285,8.6067 C9.8035,9.0857 9.3615,9.4187 8.8475,9.4967 L4.5645,10.1487 C4.4985,10.2387 4.4885,10.2957 4.5335,10.3417 L7.6335,13.5017 C7.9925,13.8697 8.1565,14.3937 8.0725,14.9057 L7.3415,19.3687 C7.3295,19.4397 7.3625,19.4747 7.3835,19.4897 L11.2585,17.3857 C11.4895,17.2577 11.7445,17.1937 11.9995,17.1937 M16.5945,20.9997 C16.3395,20.9997 16.0845,20.9357 15.8515,20.8067 L12.0205,18.7007 L8.1495,20.8067 C7.6285,21.0937 7.0025,21.0577 6.5175,20.7147 C6.0105,20.3557 5.7595,19.7477 5.8605,19.1267 L6.5925,14.6637 C6.5995,14.6217 6.5875,14.5777 6.5615,14.5507 L3.4625,11.3927 C3.0345,10.9547 2.8905,10.3197 3.0855,9.7337 C3.2755,9.1627 3.7565,8.7537 4.3395,8.6647 L8.6215,8.0137 L10.5885,3.9077 C10.8525,3.3477 11.3935,2.9997 12.0005,2.9997 C12.6065,2.9997 13.1485,3.3477 13.4125,3.9077 L15.3285,7.9667 L19.6605,8.6647 C20.2435,8.7537 20.7245,9.1627 20.9145,9.7337 C21.1105,10.3187 20.9665,10.9547 20.5385,11.3917 L17.4385,14.5517 C17.4135,14.5777 17.4015,14.6217 17.4085,14.6627 L18.1405,19.1267 C18.2415,19.7487 17.9895,20.3567 17.4825,20.7147 C17.2155,20.9037 16.9045,20.9997 16.5945,20.9997"/></svg>